<?xml version="1.0" ?>
<svg xmlns="http://www.w3.org/2000/svg" viewBox="0 0 1280 640" role="img" aria-labelledby="title desc">
  <title id="title">MySR social preview</title>
  <desc id="desc">MySR product card with a distinct visual identity and English positioning.</desc>
  <rect width="1280" height="640" fill="#F6F9FE"/>
  <rect width="14" height="640" fill="#1769E0"/>
  <rect x="840" y="42" width="372" height="556" rx="28" fill="#EAF2FF"/>
  <text x="78" y="87" fill="#607089" font-family="Lato, Arial, sans-serif" font-size="15" font-weight="700" letter-spacing="2.6">PYTHON FRONTEND / SYMBOLIC REGRESSION</text>
  <rect x="78" y="146" width="118" height="108" rx="20" fill="#EAF2FF" stroke="#1769E0" stroke-width="7"/>
  <path d="M100 178h64M100 204h78M100 230h44" stroke="#F4A340" stroke-width="9" stroke-linecap="round"/>
  <path d="M180 316C214 316 221 278 250 278C278 278 283 309 309 278C327 258 338 218 354 166" fill="none" stroke="#1769E0" stroke-width="9" stroke-linecap="round"/>
  <circle cx="181" cy="316" r="9" fill="#F4A340"/>
  <circle cx="354" cy="166" r="9" fill="#F4A340"/>
  <text x="382" y="211" fill="#142033" font-family="Lato, Arial, sans-serif" font-size="62" font-weight="700">MySR</text>
  <text x="386" y="263" fill="#607089" font-family="Lato, Arial, sans-serif" font-size="19" font-weight="700">PYTHON FRONTEND  ·  EQUATION DISCOVERY</text>
  <text x="78" y="379" fill="#142033" font-family="Lato, Arial, sans-serif" font-size="37" font-weight="700">Turn data into equations.</text>
  <text x="80" y="423" fill="#607089" font-family="Lato, Arial, sans-serif" font-size="22">A readable workflow from arrays to inspectable models.</text>
  <rect x="78" y="504" width="160" height="36" rx="18" fill="#FFFFFF" stroke="#C9D9F4"/>
  <text x="88" y="527" fill="#1769E0" font-family="Lato, Arial, sans-serif" font-size="12" font-weight="700" letter-spacing="1">EXPLAINABLE</text>
  <rect x="254" y="504" width="160" height="36" rx="18" fill="#FFFFFF" stroke="#C9D9F4"/>
  <text x="264" y="527" fill="#1769E0" font-family="Lato, Arial, sans-serif" font-size="12" font-weight="700" letter-spacing="1">SCIKIT-LEARN</text>
  <rect x="430" y="504" width="160" height="36" rx="18" fill="#FFFFFF" stroke="#C9D9F4"/>
  <text x="440" y="527" fill="#1769E0" font-family="Lato, Arial, sans-serif" font-size="12" font-weight="700" letter-spacing="1">CORE-BACKED</text>
  <text x="884" y="96" fill="#1769E0" font-family="Lato, Arial, sans-serif" font-size="14" font-weight="700" letter-spacing="2">MY PIPELINE</text>
  <text x="884" y="218" fill="#142033" font-family="DejaVu Sans Mono, monospace" font-size="21">fit(X, y) -&gt; f(x)</text>
  <text x="884" y="258" fill="#607089" font-family="DejaVu Sans Mono, monospace" font-size="17">features -&gt; search -&gt; predict</text>
  <path d="M884 392C930 358 964 420 1004 389C1043 327 1110 346 1168 293" fill="none" stroke="#F4A340" stroke-width="5" stroke-linecap="round"/>
  <circle cx="884" cy="392" r="7" fill="#1769E0"/>
  <circle cx="964" cy="420" r="7" fill="#1769E0"/>
  <circle cx="1043" cy="327" r="7" fill="#1769E0"/>
  <circle cx="1168" cy="293" r="7" fill="#1769E0"/>
  <text x="884" y="536" fill="#607089" font-family="Lato, Arial, sans-serif" font-size="16" font-weight="700" letter-spacing="1.4">DATA  ·  SEARCH  ·  INSIGHT</text>
</svg>
